#!OML:ASF F:\VICON\USERDATA\INSTALL\rory3\rory3.ASF
:FULLY-SPECIFIED
:DEGREES
126
root 0.752504 17.3092 31.0361 0.635421 -6.64608 -3.42276
lowerback 18.1776 -1.76583 4.85239
upperback 1.68336 -1.16231 2.21089
thorax -8.43123 -0.692127 -0.0731976
lowerneck -6.43022 3.10239 0.261395
upperneck -9.4299 3.83509 -4.6238
head -1.7714 1.96949 -1.48087
rclavicle 7.55382e-015 -1.94809e-014
rhumerus -33.1905 13.8248 -85.3459
rradius 93.4585
rwrist -3.11049
rhand -43.7393 38.4661
rfingers 7.12502
rthumb -16.5702 9.15359
lclavicle 7.55382e-015 -1.94809e-014
lhumerus -48.6858 -16.8702 94.3534
lradius 105.114
lwrist 29.1508
lhand -38.1057 7.87437
lfingers 7.12502
lthumb -11.1412 37.5586
rfemur -17.8389 5.06747 30.9662
rtibia 40.1319
rfoot -13.654 -7.25885
rtoes 3.86068
lfemur -5.76316 13.8395 -8.99223
ltibia 104.935
lfoot 24.2007 -4.9239
ltoes -6.09615
127
root 0.75186 17.2442 31.4994 1.16887 -5.96348 -3.8083
lowerback 17.9689 -1.99653 5.36527
upperback 1.68308 -1.37433 2.24848
thorax -8.33651 -0.809333 -0.27405
lowerneck -5.94179 3.10218 0.681529
upperneck -10.4651 3.75496 -4.95964
head -2.18305 1.93937 -1.69472
rclavicle -6.4605e-015 4.77083e-015
rhumerus -30.5887 14.7155 -85.3507
rradius 94.3893
rwrist -2.89929
rhand -43.8452 38.6866
rfingers 7.12502
rthumb -16.6722 9.38262
lclavicle -6.4605e-015 4.77083e-015
lhumerus -49.9002 -15.5595 94.0621
lradius 104.998
lwrist 30.607
lhand -38.1052 8.5552
lfingers 7.12502
lthumb -11.1408 38.2395
rfemur -17.1064 4.21125 31.2265
rtibia 41.1492
rfoot -15.2679 -7.32251
rtoes 0.514304
lfemur -10.0167 13.6334 -8.64097
ltibia 108.301
lfoot 22.4595 -6.34868
ltoes -9.28816
128
root 0.739429 17.2017 31.9632 1.65118 -4.62332 -3.24898
lowerback 17.5727 -2.25587 4.92855
upperback 1.61439 -1.8397 2.08543
thorax -8.20569 -1.0189 -0.0988809
lowerneck -5.3754 3.03216 0.946434
upperneck -11.3153 3.60745 -5.13341
head -2.56319 1.87651 -1.83076
rclavicle -6.36111e-015 2.3059e-014
rhumerus -28.0606 15.4446 -85.1995
rradius 95.0819
rwrist -2.54098
rhand -43.8568 38.7719
rfingers 7.12502
rthumb -16.6834 9.46885
lclavicle -6.36111e-015 2.3059e-014
lhumerus -51.0349 -14.5883 93.9371
lradius 104.819
lwrist 32.0435
lhand -38.1987 10.8314
lfingers 7.12502
lthumb -11.2309 40.5108
rfemur -16.3644 3.03684 30.5169
rtibia 41.7465
rfoot -16.5946 -7.69637
rtoes -3.0728
lfemur -14.9191 12.5461 -9.84407
ltibia 110.958
lfoot 21.6259 -6.92433
ltoes -10.3916
129
root 0.723366 17.1646 32.4103 2.40397 -2.15433 -3.10382
lowerback 17.1868 -2.81268 5.13313
upperback 1.32027 -2.53961 2.14985
thorax -8.3485 -1.36485 0.0229309
lowerneck -5.16696 2.77478 0.844607
upperneck -11.6382 3.25087 -5.15844
head -2.72252 1.71049 -1.83333
rclavicle 3.72721e-014 -3.65764e-014
rhumerus -25.9763 15.7538 -84.7773
rradius 95.8975
rwrist -2.07642
rhand -43.9041 38.6405
rfingers 7.12502
rthumb -16.7289 9.34125
lclavicle 3.72721e-014 -3.65764e-014
lhumerus -52.096 -13.9316 94.1483
lradius 104.675
lwrist 33.6858
lhand -38.3452 12.2039
lfingers 7.12502
lthumb -11.3722 41.8755
rfemur -15.9432 1.18564 30.3746
rtibia 42.1308
rfoot -17.7148 -8.27495
rtoes -6.29482
lfemur -20.866 10.2248 -10.8126
ltibia 113.381
lfoot 21.4554 -7.27152
ltoes -10.5402
130
root 0.721235 17.1663 32.9674 1.69211 -5.222 -3.67514
lowerback 17.6697 -1.50752 5.00203
upperback 1.69569 -0.826899 2.21259
thorax -8.12656 -0.531254 -0.252415
lowerneck -4.88305 2.51182 0.888913
upperneck -11.8217 2.87869 -5.29043
head -2.84643 1.53322 -1.89373
rclavicle -6.95746e-016 2.74323e-014
rhumerus -24.5982 15.7018 -84.4914
rradius 96.823
rwrist -1.42207
rhand -43.8125 38.3198
rfingers 7.12502
rthumb -16.6407 9.01314
lclavicle -6.95746e-016 2.74323e-014
lhumerus -53.2695 -13.3422 94.3897
lradius 104.714
lwrist 35.3096
lhand -38.1354 12.8785
lfingers 7.12502
lthumb -11.1699 42.5612
rfemur -12.7204 3.13934 30.8355
rtibia 41.9764
rfoot -18.6251 -7.69601
rtoes -10.4581
lfemur -21.1112 13.3575 -9.68687
ltibia 113.835
lfoot 19.5234 -8.18804
ltoes -10.5292
131
root 0.702442 17.1669 33.4485 1.78057 -5.29347 -3.99965
lowerback 18.0877 -1.16935 4.90673
upperback 1.57726 -0.352183 2.35826
thorax -8.46498 -0.30416 -0.149004
lowerneck -5.15145 2.30116 1.06629
upperneck -11.48 2.59305 -5.46056
head -2.68932 1.38138 -1.96654
rclavicle -2.85256e-014 2.34566e-014
rhumerus -23.4901 15.6012 -84.2902
rradius 97.8843
rwrist -0.943379
rhand -43.7962 38.7057
rfingers 7.12502
rthumb -16.625 9.39775
lclavicle -2.85256e-014 2.34566e-014
lhumerus -54.292 -12.7567 94.6028
lradius 104.808
lwrist 36.5292
lhand -37.996 12.7205
lfingers 7.12502
lthumb -11.0354 42.4104
rfemur -10.8136 3.31091 31.1969
rtibia 41.6173
rfoot -18.654 -7.53622
rtoes -11.921
lfemur -24.6394 13.5877 -9.54649
ltibia 114.622
lfoot 18.2727 -8.8045
ltoes -12.8727
132
root 0.696905 17.1883 33.9543 1.86569 -5.15782 -4.2605
lowerback 18.2134 -0.907355 5.09271
upperback 1.57092 0.0416503 2.37971
thorax -8.52576 -0.122969 -0.328494
lowerneck -6.18442 2.09418 1.2168
upperneck -10.6319 2.34591 -5.4815
head -2.23159 1.22945 -1.96271
rclavicle 2.5842e-015 9.93923e-015
rhumerus -22.3639 15.303 -84.0766
rradius 98.9212
rwrist -0.69251
rhand -43.8087 39.1125
rfingers 7.12502
rthumb -16.637 9.80558
lclavicle 2.5842e-015 9.93923e-015
lhumerus -55.0286 -12.4539 94.8688
lradius 105.126
lwrist 37.917
lhand -39.7517 16.794
lfingers 7.12502
lthumb -12.7285 46.386
rfemur -8.64651 2.97597 31.3619
rtibia 40.9581
rfoot -17.9769 -6.88895
rtoes -11.8048
lfemur -27.8694 13.1311 -9.89644
ltibia 114.68
lfoot 17.2032 -9.20489
ltoes -15.552
